<?xml version="1.0" encoding="iso-8859-1"?>
<!-- Uploaded to: SVG Repo, www.svgrepo.com, Generator: SVG Repo Mixer Tools -->
<svg fill="#000000" height="800px" width="800px" version="1.1" id="Layer_1" xmlns="http://www.w3.org/2000/svg" xmlns:xlink="http://www.w3.org/1999/xlink" 
	 viewBox="0 0 510.836 510.836" xml:space="preserve">
<g>
	<g>
		<path d="M453.818,80.873c-32.582,0-58.182,40.727-58.182,93.091c0,8.145,1.164,17.455,2.327,25.6
			c1.164,5.818,6.982,10.473,13.964,9.309c5.818-1.164,10.473-6.982,9.309-13.964c-1.164-6.982-2.327-13.964-2.327-20.945
			c0-40.727,18.618-69.818,34.909-69.818c16.291,0,34.909,29.091,34.909,69.818c0,39.564-17.455,68.655-33.745,69.818
			c-45.382-12.8-104.727-20.945-167.564-22.109c-10.473-26.764-10.473-67.491,0-94.255c29.091-1.164,58.182-3.491,86.109-6.982
			c5.818-1.164,10.473-6.982,10.473-12.8s-6.982-10.473-12.8-10.473c-104.727,13.964-229.236,6.982-309.527-16.291
			c-1.164,0-2.327,0-3.491,0C25.6,80.873,0,121.6,0,173.964s25.6,93.091,58.182,93.091c1.164,0,2.327,0,3.491,0
			c29.091-8.145,64-13.964,102.4-18.618c5.818-1.164,11.636-5.818,10.473-12.8c-1.164-5.818-5.818-11.636-12.8-10.473
			c-39.564,3.491-74.473,10.473-104.727,18.618c-16.291-1.164-33.745-30.255-33.745-69.818c0-39.564,17.455-68.655,33.745-69.818
			c38.4,10.473,86.109,17.455,136.145,20.945c-9.309,30.255-9.309,68.655,0,98.909c1.164,2.327,1.164,4.655,2.327,6.982
			c-1.164,3.491-2.327,8.145-2.327,12.8c0,13.964,5.818,25.6,15.127,33.745c0,0,0,0,0,1.164v104.727
			c0,12.8-10.473,23.273-23.273,23.273c-6.982,0-11.636,4.655-11.636,11.636s4.655,11.636,11.636,11.636
			c25.6,0,46.545-20.945,46.545-46.545v-94.255c2.327,0,5.818,1.164,8.145,1.164c1.164,0,2.327,0,3.491,0v46.545
			c0,19.782,15.127,34.909,34.909,34.909c19.782,0,34.909-15.127,34.909-34.909c0-6.982-4.655-11.636-11.636-11.636
			s-11.636,4.655-11.636,11.636c0,6.982-4.655,11.636-11.636,11.636c-6.982,0-11.636-4.655-11.636-11.636v-54.691
			c11.636-8.145,19.782-22.109,19.782-37.236c61.673,2.327,119.855,9.309,162.909,22.109c1.164,0,2.327,0,3.491,0
			c32.582,0,58.182-40.727,58.182-93.091C510.836,121.6,486.4,80.873,453.818,80.873z M217.6,126.255
			c15.127,1.164,30.255,1.164,45.382,1.164c-6.982,22.109-8.145,48.873-4.655,73.309c-5.818-2.327-11.636-3.491-17.455-3.491
			c-10.473,0-19.782,3.491-27.927,9.309C207.127,180.945,208.291,148.364,217.6,126.255z M240.873,267.055
			c-12.8,0-23.273-10.473-23.273-23.273c0-12.8,10.473-23.273,23.273-23.273s23.273,10.473,23.273,23.273
			C264.145,256.582,253.673,267.055,240.873,267.055z"/>
	</g>
</g>
</svg>